# xmcd
# 
# Track frame offsets:
#     150
#     24570
#     41802
#     59230
#     74120
#     96995
#     111186
#     129734
#     150884
#     165815
# 
# Disc length: 2627
# 
# Revision: 0
# Processed by: cddbd v1.5.2PL0 Copyright (c) Steve Scherf et al.
# Submitted via: fre:ac v1.0.27
# 
DISCID=8a0a410a
DTITLE=Phoebe Bridgers - Stranger In The Alps
DYEAR=2017
DGENRE=Folk/Rock
TTITLE0=Smoke Signals
TTITLE1=Motion Sickness
TTITLE2=Funeral
TTITLE3=Demi Moore
TTITLE4=Scott Street
TTITLE5=Killer
TTITLE6=Georgia
TTITLE7=Chelsea
TTITLE8=Would You Rather
TTITLE9=You Missed My Heart
EXTD=
EXTT0=
EXTT1=
EXTT2=
EXTT3=
EXTT4=
EXTT5=
EXTT6=
EXTT7=
EXTT8=
EXTT9=
PLAYORDER=
